<svg xmlns="http://www.w3.org/2000/svg" viewBox="0 0 43 43"><g fill-rule="nonzero" fill="none"><path d="M17.5 32C25.508 32 32 25.508 32 17.5S25.508 3 17.5 3 3 9.492 3 17.5 9.492 32 17.5 32z" fill="#FE3700"/><path d="M41.992 37.194l-10.256-9.19c2.344-3.02 3.634-6.688 3.634-10.568 0-4.653-1.839-9.041-5.182-12.327C26.855 1.813 22.415 0 17.685 0c-4.72 0-9.16 1.813-12.503 5.109C1.838 8.405 0 12.783 0 17.436c0 4.654 1.838 9.042 5.182 12.328 3.343 3.296 7.783 5.109 12.503 5.109 3.634 0 7.095-1.081 10.02-3.074l9.406 10.207a3.493 3.493 0 004.881 0 3.376 3.376 0 000-4.812zM7.247 27.753c-5.663-5.663-5.663-14.843 0-20.506s14.843-5.663 20.506 0 5.663 14.843 0 20.506-14.853 5.663-20.506 0z" fill="#000"/><path d="M7.433 17.58a24.594 24.594 0 003.335 2.834 6.57 6.57 0 01-.652-2.833c0-1.006.239-1.97.652-2.833a24.594 24.594 0 00-3.335 2.833zM24.282 14.748a6.57 6.57 0 01.651 2.833 6.57 6.57 0 01-.651 2.833 24.765 24.765 0 003.345-2.833 24.104 24.104 0 00-3.345-2.833z" fill="#FFF"/><path d="M17.525 9.843c-7.463 0-13.514 7.738-13.514 7.738s6.05 7.738 13.514 7.738c7.463 0 13.513-7.738 13.513-7.738s-6.05-7.738-13.513-7.738zm-6.757 10.571a23.938 23.938 0 01-3.335-2.833 24.594 24.594 0 013.335-2.833 6.57 6.57 0 00-.652 2.833c0 1.015.239 1.97.652 2.833zm7.278.792c-.174.02-.337.05-.521.05-.25 0-.49-.03-.728-.07-1.564-.274-2.803-1.412-3.118-2.864a3.309 3.309 0 01-.076-.741c0-.254.033-.498.076-.741.37-1.676 1.945-2.925 3.846-2.925 2.161 0 3.921 1.645 3.921 3.666 0 1.858-1.477 3.381-3.4 3.625zm6.236-.792a6.57 6.57 0 00.651-2.833 6.57 6.57 0 00-.651-2.833 24.765 24.765 0 013.345 2.833 22.783 22.783 0 01-3.345 2.833z" fill="#000"/><path d="M21.446 17.58c0-2.02-1.76-3.665-3.921-3.665-1.89 0-3.477 1.26-3.846 2.925a3.309 3.309 0 00-.076.74c0 .255.033.498.076.742.315 1.452 1.554 2.59 3.118 2.864.239.04.478.07.728.07.173 0 .347-.03.521-.05 1.912-.244 3.4-1.767 3.4-3.625z" fill="#000"/><path d="M17.525 22.475c-.305 0-.62-.03-.967-.091-2.097-.366-3.726-1.868-4.16-3.818a4.345 4.345 0 01-.11-.985c0-.325.033-.66.11-.985.499-2.265 2.65-3.91 5.127-3.91 2.89 0 5.236 2.194 5.236 4.895 0 2.427-1.956 4.509-4.541 4.833-.283.041-.489.061-.695.061zm0-7.331c-1.239 0-2.314.822-2.564 1.95a2.5 2.5 0 00-.054.497c0 .173.021.335.054.498.206.954 1.043 1.716 2.075 1.898.282.051.51.051.728.02l.097-.01c1.293-.162 2.27-1.198 2.27-2.406.012-1.35-1.162-2.447-2.606-2.447z" fill="#FFF"/></g></svg>