<svg viewBox="0 0 14 14" xmlns="http://www.w3.org/2000/svg" fill-rule="evenodd" clip-rule="evenodd" stroke-linejoin="round" stroke-miterlimit="2"><path d="M6.856 13.106c3.45 0 6.25-2.8 6.25-6.25 0-3.449-2.8-6.25-6.25-6.25a6.254 6.254 0 00-6.25 6.25c0 3.45 2.801 6.25 6.25 6.25z"/><circle cx="6.856" cy="6.856" r="5.106" fill="#fff"/><path d="M6.93 9.856c.077 0 .115-.039.115-.118V4.729c0-.027.01-.05.029-.071a.09.09 0 01.069-.032h.32c.066 0 .099.029.099.087V9.73c0 .037.012.067.036.091.025.023.062.035.111.035h.615c.076 0 .115-.042.115-.126V4.729c0-.032.008-.057.024-.075a.096.096 0 01.074-.028h.328c.038 0 .065-.006.082-.019.016-.013.024-.036.024-.067v-.59c0-.062-.035-.094-.106-.094H6.439c-.41 0-.764.076-1.062.228a1.611 1.611 0 00-.676.617 1.69 1.69 0 00-.23.876c0 .503.155.899.463 1.187.309.288.696.456 1.16.503.055.005.082.029.082.071v2.4c0 .079.039.118.115.118h.639z" fill-rule="nonzero"/></svg>