<?xml version="1.0" encoding="UTF-8"?>
<svg width="43px" height="43px" viewBox="0 0 43 43" version="1.1" xmlns="http://www.w3.org/2000/svg" xmlns:xlink="http://www.w3.org/1999/xlink">
    <!-- Generator: Sketch 63.1 (92452) - https://sketch.com -->
    <title>icon-search</title>
    <desc>Created with Sketch.</desc>
    <g id="Welcome" stroke="none" stroke-width="1" fill="none" fill-rule="evenodd">
        <g id="Postcard-prose" transform="translate(-1351.000000, -112.000000)" fill-rule="nonzero">
            <g id="icon-search" transform="translate(1351.000000, 112.000000)">
                <path d="M17.5,32 C25.5081289,32 32,25.5081289 32,17.5 C32,9.49187113 25.5081289,3 17.5,3 C9.49187113,3 3,9.49187113 3,17.5 C3,25.5081289 9.49187113,32 17.5,32 Z" id="Oval" fill="#FE3700"></path>
                <path d="M41.9921245,37.1940593 L31.7359835,28.0041905 C34.07963,24.9832994 35.3697106,21.3158316 35.3697106,17.4363715 C35.3697106,12.7831392 33.5313457,8.39489739 30.1878867,5.10901584 C26.8551784,1.81253466 22.4151509,0 17.6848553,0 C12.9653103,0 8.52528283,1.81253466 5.18182386,5.10901584 C1.8383649,8.40549701 0,12.7831392 0,17.4363715 C0,22.0896037 1.8383649,26.4778456 5.18182386,29.7637271 C8.52528283,33.0602083 12.9653103,34.872743 17.6848553,34.872743 C21.3185824,34.872743 24.7802988,33.7915819 27.7044815,31.7988538 L37.1113195,42.0062858 C38.4551534,43.3312381 40.6482905,43.3312381 41.9921245,42.0062858 C43.3359585,40.6813336 43.3359585,38.5190115 41.9921245,37.1940593 Z M7.24720645,27.7527936 C1.58426452,22.0898516 1.58426452,12.9101484 7.24720645,7.24720645 C12.9101484,1.58426452 22.0898516,1.58426452 27.7527936,7.24720645 C33.4157355,12.9101484 33.4157355,22.0898516 27.7527936,27.7527936 C22.0898516,33.4157355 12.8995237,33.4157355 7.24720645,27.7527936 Z" id="Shape" fill="#000000"></path>
                <g id="Group" transform="translate(4.000000, 9.000000)">
                    <path d="M3.43275789,8.58080495 C4.24749474,9.40334365 5.39898947,10.4594427 6.76774737,11.4139938 C6.35494737,10.5508359 6.11595789,9.58613003 6.11595789,8.58080495 C6.11595789,7.57547988 6.35494737,6.61077399 6.76774737,5.7476161 C5.39898947,6.70216718 4.24749474,7.75826625 3.43275789,8.58080495 Z" id="Path" fill="#FFFFFF"></path>
                    <path d="M20.2815158,5.7476161 C20.6943158,6.61077399 20.9333053,7.57547988 20.9333053,8.58080495 C20.9333053,9.58613003 20.6943158,10.5508359 20.2815158,11.4139938 C21.6502737,10.4594427 22.8126316,9.40334365 23.6273684,8.58080495 C22.8126316,7.75826625 21.6611368,6.70216718 20.2815158,5.7476161 Z" id="Path" fill="#FFFFFF"></path>
                    <path d="M13.5246316,0.842848297 C6.06164211,0.842848297 0.0108631579,8.58080495 0.0108631579,8.58080495 C0.0108631579,8.58080495 6.06164211,16.3187616 13.5246316,16.3187616 C20.9876211,16.3187616 27.0384,8.58080495 27.0384,8.58080495 C27.0384,8.58080495 20.9876211,0.842848297 13.5246316,0.842848297 Z M6.76774737,11.4139938 C5.39898947,10.4594427 4.23663158,9.40334365 3.43275789,8.58080495 C4.24749474,7.75826625 5.39898947,6.70216718 6.76774737,5.7476161 C6.35494737,6.61077399 6.11595789,7.57547988 6.11595789,8.58080495 C6.11595789,9.59628483 6.35494737,10.5508359 6.76774737,11.4139938 Z M14.0460632,12.2060681 C13.8722526,12.2263777 13.7093053,12.2568421 13.5246316,12.2568421 C13.2747789,12.2568421 13.0357895,12.2263777 12.7968,12.1857585 C11.2325053,11.9115789 9.99410526,10.7742415 9.67907368,9.32210526 C9.62475789,9.08854489 9.60303158,8.83467492 9.60303158,8.58080495 C9.60303158,8.32693498 9.63562105,8.08321981 9.67907368,7.83950464 C10.0484211,6.16396285 11.6235789,4.9149226 13.5246316,4.9149226 C15.6864,4.9149226 17.4462316,6.56 17.4462316,8.58080495 C17.4462316,10.4391331 15.9688421,11.9623529 14.0460632,12.2060681 Z M20.2815158,11.4139938 C20.6943158,10.5508359 20.9333053,9.58613003 20.9333053,8.58080495 C20.9333053,7.57547988 20.6943158,6.61077399 20.2815158,5.7476161 C21.6502737,6.70216718 22.8126316,7.75826625 23.6273684,8.58080495 C22.8126316,9.41349845 21.6611368,10.4695975 20.2815158,11.4139938 Z" id="Shape" fill="#000000"></path>
                    <g transform="translate(7.604211, 3.046440)">
                        <path d="M9.84202105,5.53436533 C9.84202105,3.51356037 8.08218947,1.86848297 5.92042105,1.86848297 C4.03023158,1.86848297 2.44421053,3.12767802 2.07486316,4.79306502 C2.02054737,5.02662539 1.99882105,5.28049536 1.99882105,5.53436533 C1.99882105,5.78823529 2.03141053,6.03195046 2.07486316,6.27566563 C2.38989474,7.72780186 3.62829474,8.86513932 5.19258947,9.13931889 C5.43157895,9.17993808 5.67056842,9.21040248 5.92042105,9.21040248 C6.09423158,9.21040248 6.26804211,9.17993808 6.44185263,9.15962848 C8.35376842,8.91591331 9.84202105,7.3926935 9.84202105,5.53436533 Z" id="Path" fill="#000000"></path>
                        <path d="M5.92042105,10.4289783 C5.61625263,10.4289783 5.30122105,10.3985139 4.9536,10.3375851 C2.85701053,9.97201238 1.22753684,8.46910217 0.793010526,6.5193808 C0.716968421,6.19442724 0.684378947,5.85931889 0.684378947,5.53436533 C0.684378947,5.20941176 0.716968421,4.87430341 0.793010526,4.54934985 C1.29271579,2.28482972 3.44362105,0.639752322 5.92042105,0.639752322 C8.81002105,0.639752322 11.1564632,2.83318885 11.1564632,5.53436533 C11.1564632,7.96136223 9.20109474,10.043096 6.61566316,10.3680495 C6.33322105,10.4086687 6.12682105,10.4289783 5.92042105,10.4289783 Z M5.92042105,3.09721362 C4.68202105,3.09721362 3.60656842,3.91975232 3.35671579,5.04693498 C3.32412632,5.20941176 3.3024,5.37188854 3.3024,5.54452012 C3.3024,5.7171517 3.32412632,5.87962848 3.35671579,6.04210526 C3.56311579,6.99665635 4.39957895,7.75826625 5.43157895,7.94105263 C5.71402105,7.99182663 5.94214737,7.99182663 6.15941053,7.96136223 L6.25717895,7.95120743 C7.54989474,7.78873065 8.52757895,6.75294118 8.52757895,5.54452012 C8.53844211,4.19393189 7.36522105,3.09721362 5.92042105,3.09721362 Z" id="Shape" fill="#FFFFFF"></path>
                    </g>
                </g>
            </g>
        </g>
    </g>
</svg>