<svg viewBox="0 0 11 10" xmlns="http://www.w3.org/2000/svg" fill-rule="evenodd" clip-rule="evenodd" stroke-linejoin="round" stroke-miterlimit="2"><clipPath id="a"><path d="M1.539.073a.25.25 0 01.353.354 4.749 4.749 0 000 6.718.25.25 0 11-.353.353 5.247 5.247 0 010-7.425z" clip-rule="nonzero"/></clipPath><g clip-path="url(#a)"><path fill="#fff" d="M-2.5-2.5h6.965v12.572H-2.5z"/></g><clipPath id="b"><path d="M2.521 1.091a.25.25 0 01.353.354 3.31 3.31 0 000 4.681.25.25 0 11-.353.354 3.809 3.809 0 010-5.389z" clip-rule="nonzero"/></clipPath><g clip-path="url(#b)"><path fill="#fff" d="M-1.096-1.482h6.544V9.053h-6.544z"/></g><clipPath id="c"><path d="M3.521 2.091a.25.25 0 01.353.354 1.895 1.895 0 000 2.681.25.25 0 11-.353.354 2.394 2.394 0 010-3.389z" clip-rule="nonzero"/></clipPath><g clip-path="url(#c)"><path fill="#fff" d="M.318-.482h6.129v8.535H.318z"/></g><clipPath id="d"><path d="M8.539.073a.25.25 0 01.353 0 5.247 5.247 0 010 7.425.249.249 0 01-.353 0 .249.249 0 010-.353 4.749 4.749 0 000-6.718.25.25 0 010-.354z" clip-rule="nonzero"/></clipPath><g clip-path="url(#d)"><path fill="#fff" d="M5.966-2.5h6.965v12.571H5.966z"/></g><clipPath id="e"><path d="M7.557 1.092a.249.249 0 01.353 0 3.808 3.808 0 010 5.388.249.249 0 01-.353 0 .249.249 0 010-.353 3.31 3.31 0 000-4.682.249.249 0 010-.353z" clip-rule="nonzero"/></clipPath><g clip-path="url(#e)"><path fill="#fff" d="M4.983-1.482h6.544V9.053H4.983z"/></g><clipPath id="f"><path d="M6.557 2.092a.249.249 0 01.353 0 2.393 2.393 0 010 3.388.249.249 0 01-.353 0 .249.249 0 010-.353 1.896 1.896 0 000-2.682.249.249 0 010-.353z" clip-rule="nonzero"/></clipPath><g clip-path="url(#f)"><path fill="#fff" d="M3.983-.482h6.129v8.535H3.983z"/></g><path d="M3.216 9.536a.25.25 0 01-.25-.25v-.011l.001-.013.001-.013.002-.012.003-.012.003-.012.003-.009.004-.011.004-.01.005-.009.005-.01.005-.009.008-.011.006-.009.008-.01.007-.008.01-.01.007-.007.011-.009.008-.006.011-.008.009-.006.012-.006.009-.005.008-.004.01-.004.014-.004.021-.006.01-.002a.215.215 0 01.045-.004c1.196 0 1.665-1.152 1.739-4.284a1 1 0 11.521 0c.074 3.125.542 4.279 1.732 4.284h.008a.25.25 0 01.25.25l-.001.013-.002.021-.002.015-.006.021-.002.01-.004.01-.002.005-.005.01-.004.009-.005.01-.006.009-.003.005-.006.008-.006.009-.007.008-.007.008-.004.004-.008.007-.008.007-.008.007-.008.007-.009.006-.009.005-.012.007-.009.005-.013.005-.01.004-.007.003-.012.003-.012.003-.009.002a.313.313 0 01-.044.004h-4zm2.36-1h-.721c-.1.197-.214.363-.344.5H5.92a2.098 2.098 0 01-.344-.5zm-.36-1.12a5.806 5.806 0 01-.159.62h.317a5.642 5.642 0 01-.158-.62z" fill="#fff"/></svg>