<?xml version="1.0" encoding="UTF-8" standalone="no"?><!DOCTYPE svg PUBLIC "-//W3C//DTD SVG 1.1//EN" "http://www.w3.org/Graphics/SVG/1.1/DTD/svg11.dtd"><svg width="100%" height="100%" viewBox="0 0 15 10" version="1.1" xmlns="http://www.w3.org/2000/svg" xmlns:xlink="http://www.w3.org/1999/xlink" xml:space="preserve" xmlns:serif="http://www.serif.com/" style="fill-rule:evenodd;clip-rule:evenodd;stroke-linejoin:round;stroke-miterlimit:2;"><g><path d="M7,1.1l0.039,0c0.316,0 0.606,0.098 0.836,0.261c0.154,-0.774 0.902,-1.361 1.801,-1.361c0.858,0 1.58,0.536 1.777,1.259c0.66,0.276 1.119,0.882 1.119,1.586c0.069,1.027 0.51,1.227 0.917,1.845c0.346,0.455 0.55,1.007 0.55,1.601c0,1.554 -1.388,2.815 -3.097,2.815c-1.709,0 -3.097,-1.261 -3.097,-2.815c0,-0.31 0.056,-0.609 0.158,-0.888c0.122,-0.48 -0.217,-1.037 -0.97,-1.043l-0.028,0l0,0c-0.752,0.006 -1.091,0.563 -0.969,1.043c0.102,0.279 0.158,0.578 0.158,0.888c0,1.554 -1.388,2.815 -3.097,2.815c-1.709,0 -3.097,-1.261 -3.097,-2.815c0,-0.594 0.203,-1.146 0.55,-1.601c0.407,-0.618 0.848,-0.818 0.916,-1.845c0,-0.704 0.459,-1.31 1.12,-1.586c0.197,-0.723 0.918,-1.259 1.777,-1.259c0.898,0 1.646,0.587 1.801,1.361c0.229,-0.163 0.52,-0.261 0.836,-0.261Z"/><ellipse cx="3.117" cy="6.316" rx="2.033" ry="2.012" style="fill:#fff;"/><ellipse cx="10.927" cy="6.316" rx="2.033" ry="2.012" style="fill:#fff;"/></g></svg>