<?xml version="1.0" encoding="UTF-8" standalone="no"?><!DOCTYPE svg PUBLIC "-//W3C//DTD SVG 1.1//EN" "http://www.w3.org/Graphics/SVG/1.1/DTD/svg11.dtd"><svg width="100%" height="100%" viewBox="0 0 13 13" version="1.1" xmlns="http://www.w3.org/2000/svg" xmlns:xlink="http://www.w3.org/1999/xlink" xml:space="preserve" xmlns:serif="http://www.serif.com/" style="fill-rule:evenodd;clip-rule:evenodd;stroke-linejoin:round;stroke-miterlimit:2;"><path d="M11.575,11.853c0.302,0 0.546,-0.245 0.546,-0.547l0,-7.869c0,-0.302 -0.244,-0.547 -0.546,-0.547l-10.384,0c-0.232,0 -1.196,1.041 -1.191,1.405c0.097,7.04 0.645,7.011 0.645,7.011c0,0.302 0.244,0.547 0.546,0.547l10.384,0Z"/><path d="M0.547,3.787c-0.302,0 -0.547,0.244 -0.547,0.546l0,7.87c0,0.302 0.245,0.547 0.547,0.547l10.383,0c0.403,0 1.191,-1.098 1.191,-1.406c0,-7.04 -0.644,-7.011 -0.644,-7.011c0,-0.302 -0.245,-0.546 -0.547,-0.546l-10.383,0Z"/><path d="M10.384,12.729c0.302,0 1.093,-0.245 1.093,-0.547l0,-7.87c0,-0.301 -0.245,-0.546 -0.547,-0.546l-10.383,0c-0.302,0 -0.547,0.245 -0.547,0.546l0,7.87c0,0.302 0.245,0.547 0.547,0.547l9.837,0Z"/><path d="M2.691,3.052c-0.001,-0.074 -0.432,-0.065 -0.472,0l-0.625,0.736l0.074,8.268c0.001,0.101 -0.006,0.182 0.185,0.182l0.366,-0.004c0.165,-0.001 0.183,-0.083 0.182,-0.185c-0.147,-2.746 -0.133,-5.507 -0.074,-8.261l0.364,-0.736Z" style="fill:#fff;"/><path d="M10.084,3.089c0.02,-0.1 -0.423,-0.102 -0.471,-0.013l-0.395,0.679c-0.034,1.543 -0.066,3.109 -0.094,4.698c-0.021,1.177 -0.04,2.367 -0.057,3.568c-0.002,0.101 0.028,0.185 0.179,0.187l0.367,0.006c0.157,0.008 0.184,-0.078 0.186,-0.179c-0.005,-2.754 0.061,-5.507 0.152,-8.26l0.133,-0.686Z" style="fill:#fff;"/><path d="M6.206,1.416c0.704,0.002 1.194,0.042 1.894,0.119l0.058,0c0.266,-0.002 0.162,0.397 0.162,0.486c-0.093,0.419 -0.096,0.862 0,1.329c0,0.09 -0.073,0.162 -0.162,0.162l-0.324,0c-0.09,0 -0.162,-0.072 -0.162,-0.162c0.056,-0.395 0.066,-0.789 0.019,-1.184l-1.519,-0.075l0,0l-1.742,0.075c-0.047,0.395 -0.037,0.789 0.02,1.184c0,0.09 -0.073,0.162 -0.162,0.162l-0.324,0c-0.09,0 -0.162,-0.072 -0.162,-0.162c0.095,-0.467 0.092,-0.91 0,-1.329c0,-0.089 -0.105,-0.488 0.162,-0.486l0.058,0c0.711,-0.078 1.427,-0.118 2.15,-0.119l0.034,0Z"/><path d="M7.817,5.668c-0.02,-0.136 -0.147,-0.23 -0.282,-0.21c-0.64,0.127 -1.284,0.222 -1.933,0.283c-0.218,0.02 -0.23,0.146 -0.21,0.282l0.146,0.996c0.02,0.136 0.052,0.305 0.291,0.278c0.612,-0.114 1.23,-0.213 1.864,-0.273c0.135,-0.02 0.299,-0.156 0.279,-0.292c-0.083,-0.35 -0.135,-0.705 -0.155,-1.064Z" style="fill:#fff;"/><path d="M4.983,9.769c0.303,0.06 0.506,-1.15 0.347,-1.23c-0.461,-0.231 -0.968,-0.289 -1.442,-0.342c-0.165,-0.019 -0.205,0.044 -0.231,0.152c-0.122,0.529 -0.241,1.041 -0.064,1.09c0.463,0.172 0.929,0.239 1.39,0.33Z" style="fill:#fff;"/><path d="M4.073,1.475c0.065,0.068 0.084,0.164 0.042,0.239c-0.042,0.074 -0.133,0.106 -0.223,0.087c-0.085,0.091 -0.186,0.147 -0.279,0.135l-0.035,0.06c-0.055,0.098 -0.181,0.133 -0.279,0.077l-1.415,-0.802c-0.098,-0.056 -0.133,-0.181 -0.077,-0.28l0.503,-0.887c0.056,-0.099 0.181,-0.133 0.28,-0.077l1.414,0.802c0.099,0.056 0.133,0.181 0.078,0.279l-0.035,0.062c0.053,0.083 0.056,0.194 0.026,0.305Zm-0.024,0.201c-0.02,0.035 -0.064,0.047 -0.099,0.028c-0.035,-0.02 -0.047,-0.064 -0.027,-0.099c0.019,-0.035 0.064,-0.048 0.099,-0.028c0.035,0.02 0.047,0.064 0.027,0.099Z"/><path d="M6.061,2.658c0.257,0 0.458,0.004 0.458,0.175c0,0.172 -0.201,0.225 -0.458,0.225c-0.258,0 -0.475,-0.053 -0.475,-0.225c0,-0.171 0.217,-0.175 0.475,-0.175Z"/><path d="M4.11,3.352c-0.217,0 -0.394,-0.033 -0.394,-0.167c0,-0.135 0.177,0.05 0.394,0.05c0.218,0 0.395,-0.185 0.395,-0.05c0,0.134 -0.177,0.167 -0.395,0.167Z" style="fill:#fff;"/><path d="M8.029,3.352c-0.218,0 -0.394,-0.033 -0.394,-0.167c0,-0.135 0.176,0.05 0.394,0.05c0.218,0 0.394,-0.185 0.394,-0.05c0,0.134 -0.176,0.167 -0.394,0.167Z" style="fill:#fff;"/></svg>