<?xml version="1.0" encoding="UTF-8" standalone="no"?><!DOCTYPE svg PUBLIC "-//W3C//DTD SVG 1.1//EN" "http://www.w3.org/Graphics/SVG/1.1/DTD/svg11.dtd"><svg width="100%" height="100%" viewBox="0 0 14 10" version="1.1" xmlns="http://www.w3.org/2000/svg" xmlns:xlink="http://www.w3.org/1999/xlink" xml:space="preserve" xmlns:serif="http://www.serif.com/" style="fill-rule:evenodd;clip-rule:evenodd;stroke-linejoin:round;stroke-miterlimit:2;"><g opacity="0.8"><path d="M1.599,2.498l8.289,-0.537l-0.271,-1.602l-9.378,1.59l1.092,6.442l0.643,-0.109l-0.005,-0.075l-0.37,-5.709Z" style="fill:#fff;fill-rule:nonzero;"/><path d="M1.82,2.692l0.356,5.502l0.018,0.262l-1.033,0.175l-1.161,-6.851l9.787,-1.66l0.344,2.033l-8.311,0.539Zm7.825,-0.923l-0.198,-1.17l-8.968,1.52l1.022,6.033l0.254,-0.043l-0.376,-5.804l8.266,-0.536Z"/><path d="M11.256,1.665l-9.949,0.648l0.451,6.92l9.949,-0.649l-0.451,-6.919Z" style="fill:#fff;"/><path d="M11.256,1.665l-9.949,0.648l0.451,6.92l9.949,-0.649l-0.451,-6.919Zm-9.497,1.045l0.396,6.071l9.1,-0.593l-0.396,-6.071l-9.1,0.593Z"/><clipPath id="_clip1"><path d="M9.265,4.185l1.275,-0.115l-0.143,-1.57l-1.274,0.116l0.142,1.569Z"/></clipPath><g clip-path="url(#_clip1)"><rect x="6.623" y="0" width="6.417" height="6.685"/></g><path d="M6.168,3.361l0.277,4.287l0.499,-0.032l-0.277,-4.287l-0.499,0.032Z"/><path d="M7.706,5.625l2.583,-0.167l-0.032,-0.499l-2.583,0.167l0.032,0.499Z"/><path d="M7.776,6.717l2.132,-0.137l-0.032,-0.499l-2.132,0.137l0.032,0.499Z"/><path d="M2.706,4.625l2.461,-0.159l-0.032,-0.499l-2.461,0.159l0.032,0.499Z"/><path d="M2.77,5.623l2.461,-0.159l-0.032,-0.499l-2.461,0.159l0.032,0.499Z"/><path d="M2.835,6.621l2.461,-0.159l-0.032,-0.499l-2.461,0.159l0.032,0.499Z"/><path d="M2.899,7.619l2.461,-0.159l-0.032,-0.499l-2.461,0.159l0.032,0.499Z"/></g></svg>