<svg viewBox="0 0 14 13" xmlns="http://www.w3.org/2000/svg" fill-rule="evenodd" clip-rule="evenodd" stroke-linejoin="round" stroke-miterlimit="10"><path d="M.5 2.58H13v9H.5z"/><path d="M13 11.58a91.964 91.964 0 00-12.5 0v-9c4.307.105 8.471.107 12.5 0v9z" fill="none" stroke="#000"/><path d="M12.5 3.08H7v7.747l5.5.253v-8z" fill="#fff"/><clipPath id="a"><path d="M6.5 11.58S3.75 8.856 1.306 9.764V.685C3.75-.223 6.5 2.501 6.5 2.501v9.079z"/></clipPath><g clip-path="url(#a)"><path fill="#f7f2ee" d="M-1.194-2H9v16.08H-1.194z"/></g><path d="M6.5 11.58S3.75 8.856 1.306 9.764V.685C3.75-.223 6.5 2.501 6.5 2.501v9.079z" fill="none" stroke="#000"/></svg>