<?xml version="1.0" encoding="UTF-8" standalone="no"?><!DOCTYPE svg PUBLIC "-//W3C//DTD SVG 1.1//EN" "http://www.w3.org/Graphics/SVG/1.1/DTD/svg11.dtd"><svg width="100%" height="100%" viewBox="0 0 11 10" version="1.1" xmlns="http://www.w3.org/2000/svg" xmlns:xlink="http://www.w3.org/1999/xlink" xml:space="preserve" xmlns:serif="http://www.serif.com/" style="fill-rule:evenodd;clip-rule:evenodd;stroke-linejoin:round;stroke-miterlimit:2;"><g id="icon-broadcast-gray"><clipPath id="_clip1"><path d="M1.539,0.073c0.097,-0.097 0.256,-0.097 0.353,0c0.098,0.098 0.098,0.256 0,0.354c-1.856,1.856 -1.856,4.861 0,6.718c0.098,0.098 0.098,0.256 0,0.354c-0.097,0.097 -0.256,0.097 -0.353,-0.001c-2.052,-2.052 -2.052,-5.373 0,-7.425Z" clip-rule="nonzero"/></clipPath><g clip-path="url(#_clip1)"><rect x="-2.5" y="-2.5" width="6.965" height="12.572"/></g><clipPath id="_clip2"><path d="M2.521,1.091c0.098,-0.097 0.256,-0.097 0.353,0c0.098,0.098 0.098,0.256 0,0.354c-1.293,1.294 -1.293,3.388 0,4.681c0.098,0.098 0.098,0.256 0,0.354c-0.097,0.098 -0.255,0.098 -0.353,0c-1.489,-1.489 -1.489,-3.899 0,-5.389Z" clip-rule="nonzero"/></clipPath><g clip-path="url(#_clip2)"><rect x="-1.096" y="-1.482" width="6.544" height="10.535"/></g><clipPath id="_clip3"><path d="M3.521,2.091c0.098,-0.097 0.256,-0.097 0.353,0c0.098,0.098 0.098,0.256 0,0.354c-0.741,0.741 -0.741,1.941 0,2.681c0.098,0.098 0.098,0.256 0.001,0.354c-0.098,0.098 -0.256,0.098 -0.354,0c-0.937,-0.936 -0.937,-2.452 0,-3.389Z" clip-rule="nonzero"/></clipPath><g clip-path="url(#_clip3)"><rect x="0.318" y="-0.482" width="6.129" height="8.535"/></g><clipPath id="_clip4"><path d="M8.539,0.073c0.097,-0.097 0.256,-0.097 0.353,0c2.052,2.052 2.052,5.374 0,7.425c-0.097,0.098 -0.256,0.098 -0.353,0c-0.098,-0.097 -0.098,-0.256 0,-0.353c1.856,-1.857 1.856,-4.861 0,-6.718c-0.098,-0.098 -0.098,-0.256 0,-0.354Z" clip-rule="nonzero"/></clipPath><g clip-path="url(#_clip4)"><rect x="5.966" y="-2.5" width="6.965" height="12.571"/></g><clipPath id="_clip5"><path d="M7.557,1.092c0.097,-0.098 0.255,-0.098 0.353,0c1.489,1.489 1.489,3.899 0,5.388c-0.098,0.098 -0.256,0.098 -0.353,0c-0.098,-0.097 -0.098,-0.256 0,-0.353c1.293,-1.294 1.293,-3.388 0,-4.682c-0.098,-0.097 -0.098,-0.256 0,-0.353Z" clip-rule="nonzero"/></clipPath><g clip-path="url(#_clip5)"><rect x="4.983" y="-1.482" width="6.544" height="10.535"/></g><clipPath id="_clip6"><path d="M6.557,2.092c0.097,-0.098 0.255,-0.098 0.353,0c0.937,0.936 0.937,2.452 0,3.388c-0.098,0.098 -0.256,0.098 -0.353,0c-0.098,-0.097 -0.098,-0.256 0,-0.353c0.741,-0.742 0.741,-1.941 0,-2.682c-0.098,-0.097 -0.098,-0.256 0,-0.353Z" clip-rule="nonzero"/></clipPath><g clip-path="url(#_clip6)"><rect x="3.983" y="-0.482" width="6.129" height="8.535"/></g><path d="M3.216,9.536c-0.139,0 -0.25,-0.112 -0.25,-0.25l0,-0.011l0.001,-0.013l0.001,-0.013l0.002,-0.012l0.003,-0.012l0.003,-0.012l0.003,-0.009l0.004,-0.011l0.004,-0.01l0.005,-0.009l0.005,-0.01l0.005,-0.009l0.008,-0.011l0.006,-0.009l0.008,-0.01l0.007,-0.008l0.01,-0.01l0.007,-0.007l0.011,-0.009l0.008,-0.006l0.011,-0.008l0.009,-0.006l0.012,-0.006l0.009,-0.005l0.008,-0.004l0.01,-0.004l0.014,-0.004l0.021,-0.006l0.01,-0.002l0,0c0.014,-0.003 0.029,-0.004 0.045,-0.004c1.196,0 1.665,-1.152 1.739,-4.284c-0.426,-0.115 -0.739,-0.503 -0.739,-0.966c0,-0.553 0.448,-1 1,-1c0.552,0 1,0.447 1,1c0,0.463 -0.314,0.851 -0.74,0.966c0.074,3.125 0.542,4.279 1.732,4.284l0.008,0c0.138,0 0.25,0.112 0.25,0.25l-0.001,0.013l-0.002,0.021l-0.002,0.015l-0.006,0.021l-0.002,0.01l-0.004,0.01l-0.002,0.005l-0.005,0.01l-0.004,0.009l-0.005,0.01l-0.006,0.009l-0.003,0.005l-0.006,0.008l-0.006,0.009l-0.007,0.008l-0.007,0.008l-0.004,0.004l-0.008,0.007l-0.008,0.007l-0.008,0.007l-0.008,0.007l-0.009,0.006l-0.009,0.005l-0.012,0.007l-0.009,0.005l-0.013,0.005l-0.01,0.004l-0.007,0.003l-0.012,0.003l-0.012,0.003l-0.009,0.002l0,0c-0.014,0.002 -0.029,0.004 -0.044,0.004l-4,0Zm2.36,-1l-0.721,0c-0.1,0.197 -0.214,0.363 -0.344,0.5l1.409,0c-0.13,-0.137 -0.244,-0.303 -0.344,-0.5Zm-0.36,-1.12c-0.046,0.227 -0.099,0.433 -0.159,0.62l0.317,0c-0.06,-0.187 -0.113,-0.394 -0.158,-0.62Z"/></g></svg>