<svg viewBox="0 0 9 14" xmlns="http://www.w3.org/2000/svg" fill-rule="evenodd" clip-rule="evenodd" stroke-linecap="round" stroke-linejoin="round" stroke-miterlimit="10"><clipPath id="a"><path d="M8.326 13.052c-.377-.327-.719-.587-1.063-.774a3.833 3.833 0 00-1.278-.434c-.578-.087-1.098-.014-1.585.108-.501.125-.966.314-1.439.468-.672.218-1.357.36-2.226.094-.089-.027-.179-.061-.274-.091-.092-.029-.186-.051-.284-.083a.105.105 0 10-.097.186c.087.066.168.127.256.178.094.054.19.094.284.132.939.386 1.726.285 2.488.077.472-.128.933-.304 1.426-.427a4.25 4.25 0 011.392-.123c.362.029.751.107 1.194.249.363.115.754.25 1.19.464.006.005.016.003.02-.004s.003-.016-.004-.02z"/></clipPath><g clip-path="url(#a)"><path d="M-2.477 9.306h13.309v6.291H-2.477z"/></g><clipPath id="b"><path d="M8.551 2.123L5.782.388A56.616 56.616 0 01.599 8.663l2.77 1.735c1.373-2.744 3.12-5.503 5.182-8.275z"/></clipPath><g clip-path="url(#b)"><path d="M-1.901-2.112h12.952v15.01H-1.901z"/></g><path d="M8.551 2.123L5.782.388A56.616 56.616 0 01.599 8.663l2.77 1.735c1.373-2.744 3.12-5.503 5.182-8.275z" fill="none" stroke="#000" stroke-width=".41"/><clipPath id="c"><path d="M7.469.773c.764.478 1.278 1.038 1.146 1.248-.132.21-.86-.007-1.624-.486C6.227 1.056 5.713.497 5.845.286c.132-.21.859.008 1.624.487z"/></clipPath><g clip-path="url(#c)"><path d="M3.324-2.294h7.811v6.895H3.324z"/></g><path d="M7.469.773c.764.478 1.278 1.038 1.146 1.248-.132.211-.86-.007-1.624-.486C6.227 1.056 5.713.497 5.845.286c.132-.21.859.008 1.624.487z" fill="none" stroke="#000" stroke-width=".41"/><clipPath id="d"><path d="M.206 12.369l3.12-1.902-2.77-1.735-.35 3.637z"/></clipPath><g clip-path="url(#d)"><path fill="#fff" d="M-2.294 6.232h8.119v8.637h-8.119z"/></g><path d="M.206 12.369l3.12-1.902-2.77-1.735-.35 3.637z" fill="none" stroke="#000" stroke-width=".41"/><clipPath id="e"><path d="M.206 12.369l.866-.528-.769-.482-.097 1.01z"/></clipPath><g clip-path="url(#e)"><path d="M-2.294 8.859h5.866v6.009h-5.866z"/></g><path d="M.206 12.369l.866-.528-.769-.482-.097 1.01z" fill="none" stroke="#000" stroke-width=".41"/><clipPath id="f"><path d="M2.355 8.915c.634.397 1.008.945.834 1.223-.174.278-.83.181-1.465-.216C1.09 9.524.716 8.976.89 8.698c.174-.278.83-.181 1.465.217z"/></clipPath><g clip-path="url(#f)"><path d="M-1.653 6.04h7.385v6.757h-7.385z"/></g><path d="M2.355 8.915c.634.397 1.008.945.834 1.223-.174.278-.83.181-1.465-.216C1.09 9.524.716 8.976.89 8.698c.174-.278.83-.181 1.465.217z" fill="none" stroke="#000" stroke-width=".41"/><clipPath id="g"><path d="M.795 11.429c.109.067.109.263 0 .436-.108.173-.284.259-.392.191-.109-.068-.109-.264 0-.437.108-.173.284-.258.392-.19z"/></clipPath><g clip-path="url(#g)"><path d="M-2.179 8.905h5.555v5.674h-5.555z"/></g><path d="M.795 11.429c.109.067.109.263 0 .436-.108.173-.284.259-.392.191-.109-.068-.109-.264 0-.437.108-.173.284-.258.392-.19z" fill="none" stroke="#000" stroke-width=".41"/></svg>