<?xml version="1.0" encoding="UTF-8" standalone="no"?><!DOCTYPE svg PUBLIC "-//W3C//DTD SVG 1.1//EN" "http://www.w3.org/Graphics/SVG/1.1/DTD/svg11.dtd"><svg width="100%" height="100%" viewBox="0 0 14 16" version="1.1" xmlns="http://www.w3.org/2000/svg" xmlns:xlink="http://www.w3.org/1999/xlink" xml:space="preserve" xmlns:serif="http://www.serif.com/" style="fill-rule:evenodd;clip-rule:evenodd;stroke-linejoin:round;stroke-miterlimit:2;"><g><g><path d="M2.225,12.457l4.849,-3.061c0.189,-0.12 0.424,-0.038 0.524,0.183l2.78,1.304l-4.594,2.918c-0.189,0.119 -0.585,0.105 -0.806,-0.026l-2.753,-1.318Z"/><path d="M2.225,12.457l-0.712,0.449c-0.024,-0.147 -0.098,-0.327 0.022,-0.402l0.122,-0.319l0.568,0.272Z" style="fill:#fff;"/><path d="M10.378,10.883l0.586,-0.372l0.106,-0.007c0.092,0.202 0.09,0.565 0.116,0.759l-0.808,-0.38Z" style="fill:#fff;"/><path d="M10.378,10.883l0.808,0.38l0.007,0.048l-5.44,3.454c-0.189,0.12 -0.585,0.106 -0.806,-0.025l-3.487,-1.639c0.066,-0.036 0.068,-0.11 0.053,-0.195l0.712,-0.449l2.753,1.318c0.221,0.131 0.617,0.145 0.806,0.026l4.594,-2.918Z" style="fill:#fff;"/><path d="M1.358,12.041c-0.181,-0.102 -0.144,-0.522 0.045,-0.641l5.723,-3.612c0.189,-0.119 0.423,-0.038 0.523,0.183l3.58,1.72c0.384,0.228 0.189,0.591 0.031,0.631l-0.031,0.961c0.25,0.379 0.072,0.562 -0.056,0.671l-5.44,3.454c-0.19,0.12 -0.585,0.106 -0.807,-0.025l-3.596,-1.692c-0.172,-0.098 -0.168,-0.521 -0.004,-0.664l0.032,-0.986Zm9.487,-1.455l-5.061,3.215c-0.189,0.119 -0.585,0.105 -0.806,-0.026l-3.22,-1.542l-0.032,0.993l3.221,1.514c0.221,0.131 0.617,0.145 0.806,0.025l5.065,-3.216c-0.002,-0.01 -0.003,-0.02 -0.003,-0.031l0.03,-0.932Z"/></g><g><path d="M1.26,9.703l5.871,-3.652c0.228,-0.143 0.524,-0.063 0.66,0.179l3.521,1.322l-5.561,3.48c-0.229,0.142 -0.721,0.146 -1.003,0.01l-3.488,-1.339Z"/><path d="M1.26,9.703l-0.862,0.536c-0.038,-0.163 -0.139,-0.36 0.006,-0.45l0.136,-0.362l0.72,0.276Z" style="fill:#fff;"/><path d="M11.312,7.552l0.709,-0.444l0.132,-0.013c0.124,0.221 0.141,0.627 0.183,0.842l-1.024,-0.385Z" style="fill:#fff;"/><path d="M11.312,7.552l1.024,0.385l0.011,0.053l-6.585,4.121c-0.229,0.142 -0.721,0.146 -1.003,0.01l-4.417,-1.661c0.08,-0.044 0.078,-0.127 0.056,-0.221l0.862,-0.536l3.488,1.339c0.282,0.136 0.774,0.132 1.003,-0.01l5.561,-3.48Z" style="fill:#fff;"/><path d="M0.16,9.281c-0.229,-0.106 -0.205,-0.576 0.024,-0.719l6.928,-4.31c0.229,-0.142 0.525,-0.062 0.66,0.179l4.733,1.785c0.241,0.269 0.131,0.493 -0.125,0.667l0.011,1.075c0.329,0.411 0.118,0.624 -0.037,0.751l-6.584,4.121c-0.229,0.143 -0.722,0.146 -1.004,0.01l-4.556,-1.715c-0.218,-0.101 -0.235,-0.574 -0.038,-0.742l-0.012,-1.102Zm11.718,-2.083l-6.127,3.834c-0.229,0.142 -0.721,0.146 -1.003,0.01l-4.08,-1.566l0.011,1.111l4.08,1.534c0.282,0.136 0.774,0.132 1.003,-0.01l6.131,-3.837c-0.003,-0.011 -0.005,-0.022 -0.005,-0.034l-0.01,-1.042Z"/></g><g><path d="M1.942,6.802l5.955,-2.863c0.232,-0.112 0.505,-0.006 0.61,0.236l3.216,1.61l-5.642,2.731c-0.232,0.112 -0.701,0.066 -0.955,-0.092l-3.184,-1.622Z"/><path d="M1.942,6.802l-0.874,0.421c-0.019,-0.159 -0.095,-0.356 0.052,-0.426l0.166,-0.329l0.656,0.334Z" style="fill:#fff;"/><path d="M11.723,5.785l0.719,-0.348l0.127,0c0.096,0.223 0.071,0.608 0.089,0.816l-0.935,-0.468Z" style="fill:#fff;"/><path d="M11.723,5.785l0.935,0.468l0.005,0.052l-6.68,3.234c-0.233,0.112 -0.702,0.065 -0.956,-0.092l-4.034,-2.021c0.08,-0.033 0.087,-0.112 0.075,-0.203l0.874,-0.421l3.184,1.622c0.254,0.158 0.723,0.204 0.955,0.092l5.642,-2.731Z" style="fill:#fff;"/><path d="M0.939,6.291c-0.207,-0.123 -0.136,-0.566 0.096,-0.678l7.026,-3.379c0.232,-0.112 0.505,-0.006 0.61,0.237l4.136,2.072c0.377,0.278 0.217,0.607 0,0.716l-0.099,1.019c0.272,0.424 0.05,0.603 -0.11,0.709l-6.681,3.234c-0.232,0.112 -0.701,0.065 -0.955,-0.092l-4.161,-2.087c-0.198,-0.117 -0.166,-0.567 0.038,-0.706l0.1,-1.045Zm11.358,-0.784l-6.216,3.009c-0.232,0.112 -0.701,0.066 -0.955,-0.092l-3.724,-1.897l-0.101,1.053l3.726,1.867c0.254,0.157 0.723,0.204 0.956,0.092l6.22,-3.011c-0.002,-0.011 -0.002,-0.022 -0.001,-0.033l0.095,-0.988Z"/></g><g><path d="M2.827,4.657l4.524,-3.121c0.177,-0.122 0.409,-0.06 0.52,0.138l2.777,1.038l-4.285,2.972c-0.176,0.122 -0.561,0.133 -0.784,0.025l-2.752,-1.052Z"/><path d="M2.827,4.657l-0.664,0.458c-0.033,-0.135 -0.115,-0.296 -0.003,-0.373l0.099,-0.302l0.568,0.217Z" style="fill:#fff;"/><path d="M10.648,2.712l0.547,-0.38l0.103,-0.013c0.101,0.181 0.121,0.517 0.158,0.695l-0.808,-0.302Z" style="fill:#fff;"/><path d="M10.648,2.712l0.808,0.302l0.01,0.043l-5.074,3.52c-0.177,0.122 -0.562,0.133 -0.784,0.025l-3.485,-1.304c0.062,-0.037 0.059,-0.106 0.04,-0.183l0.664,-0.458l2.752,1.052c0.223,0.108 0.608,0.097 0.784,-0.025l4.285,-2.972Z" style="fill:#fff;"/><path d="M1.96,4.325c-0.182,-0.084 -0.201,-0.463 0.005,-0.595l5.339,-3.683c0.176,-0.122 0.362,0.017 0.52,0.138l3.733,1.401c0.215,0.123 0.25,0.43 -0.086,0.554l0.028,0.89c0.266,0.335 0.104,0.515 -0.014,0.623l-5.074,3.52c-0.177,0.122 -0.562,0.133 -0.785,0.025l-3.593,-1.347c-0.173,-0.08 -0.195,-0.471 -0.044,-0.613l-0.029,-0.913Zm9.124,-1.916l-4.721,3.275c-0.176,0.122 -0.561,0.133 -0.784,0.025l-3.219,-1.231l0.029,0.92l3.219,1.204c0.222,0.108 0.607,0.097 0.784,-0.025l4.724,-3.277c-0.002,-0.009 -0.004,-0.018 -0.004,-0.028l-0.028,-0.863Z"/></g></g></svg>