<?xml version="1.0" encoding="utf-8"?>
<!-- Generator: Adobe Illustrator 24.1.3, SVG Export Plug-In . SVG Version: 6.00 Build 0)  -->
<svg version="1.1" id="Layer_1" xmlns="http://www.w3.org/2000/svg" xmlns:xlink="http://www.w3.org/1999/xlink" x="0px" y="0px"
	 viewBox="0 0 807 70.4" style="enable-background:new 0 0 807 70.4;" xml:space="preserve">
<style type="text/css">
	.st0{fill:#FFFFFF;}
</style>
<g id="QmPGlF_1_">
	<g>
		<g>
			<path class="st0" d="M0,70.4c2-14,11-12,16-16c3-2.4,47-13,78.5-40.1c7-6,16.5-4.9,24.7-7.6c2.9-0.9,5.6-2.5,7.9-4.6
				c3.3-3.1,6.8-2.2,10.1-1.3c4.9,1.4,9.7,3.3,14.3,5.4c3.5,1.5,6.3,1.7,10-0.1c1.9-0.9,5.5,1.3,8.2,2.4c1.5,0.6,2.8,2.6,4.2,2.7
				c5.7,0.1,11.2,1.7,17.3,0.5c5.5-1.1,12.1-1.4,17.7,3.4c6.1,5.2,13,9.9,20,13.8c3.2,1.8,7.6,1.7,11.5,1.7
				c7.2-0.1,14.8,0.9,20.8-4.7c0.4-0.4,1.2-0.7,1.7-0.5c6.9,1.9,12.5-2.2,18.8-3.3c5.7-1,8.9-4.4,13-7.5c4.7-3.6,10.7-5,16.3-3.5
				c5.7,1.5,11-0.4,16.5-0.1c5,0.3,9.2-2.3,13.8-2.9c2-0.2,4.2,1.7,6.2,1.5c3.5-0.3,6.9-1.5,10.3-2.4c1.2-0.3,2.3-1.2,3.5-1.3
				c5.4-0.6,10.8-1,16.2-1.4c1-0.1,2.2-0.1,3,0.4c7.1,4.3,14.1,8.8,21.2,13.1c0.7,0.4,2.3,0.5,3,0c10.5-7.4,9-7.1,19-1.1
				c6.4,3.9,11.6,4.4,18.5,2.8c7-1.7,14.3-1.8,21.5,0.9c4.7,1.8,10.4,1.3,15,3.3c8,3.5,14.8,1.3,22.2-1.6c3.6-1.4,8.1-0.2,12.1-0.9
				c7.1-1.2,12.5,2.5,18.6,5c3.1,1.3,7.4-0.1,11.1-0.3c1.3,0,2.8-0.4,3.7,0.2c3.7,2.6,7.1,1.6,10.5-0.5c5-2.9,10.3-4,16-2.3
				c0.8,0.2,1.9-0.3,2.8-0.5c1.6-0.3,3.8-1.3,4.6-0.6c4.5,3.7,8.4,0.7,12.7-0.4c1.5-0.4,4.1-0.1,4.9,1c2.3,2.8,4.1,2.3,7.1,1.1
				c2.9-1.2,6.7-0.2,9.7-1.2c8.5-2.8,17.1-5.4,25-9.4c8.3-4.2,16.2-4.2,24.5-1.3c3,1.1,5.9,2.6,8.9,3.7c1.2,0.5,2.9,1.2,3.7,0.7
				c5.1-3.5,9.5,0,14.3,0.8c3.9,0.7,8.2-0.1,12.3-0.3c0.6,0,1.3-0.5,1.9-0.4c8.2,1.6,15-2.2,22.1-5.3c2.6-1.2,6.5-0.6,9.6,0.3
				c6.1,1.7,8.8,5.2,14.3,12.5c0.2,0.3,9.7,9.2,12,13c2.6,4.3,33,23,42,29c1.5,1,2,2,2,4h-50H0z"/>
		</g>
	</g>
</g>
</svg>
