<?xml version="1.0" encoding="UTF-8"?>
<svg width="76px" height="67px" viewBox="0 0 76 67" version="1.1" xmlns="http://www.w3.org/2000/svg" xmlns:xlink="http://www.w3.org/1999/xlink">
    <!-- Generator: Sketch 63.1 (92452) - https://sketch.com -->
    <title>Group 10</title>
    <desc>Created with Sketch.</desc>
    <g id="Welcome" stroke="none" stroke-width="1" fill="none" fill-rule="evenodd">
        <g id="Poetry" transform="translate(-973.000000, -2534.000000)">
            <g id="Group-10" transform="translate(973.000000, 2534.000000)">
                <path d="M72,16.3198087 C71.4019699,16.8609454 70.7095139,17.296402 69.9375959,17.5912963 C66.4175255,18.9366795 62.5775426,16.8514216 61.3675507,12.9375899 C60.1575588,9.02398783 62.0331752,4.75375876 65.5532456,3.40837556 C66.3246477,3.11348133 67.1115294,2.98381966 67.8824155,3.00160511 C65.750869,4.92989208 64.8143507,8.20298853 65.7591248,11.2592172 C66.7038989,14.314987 69.2523637,16.256068 72,16.3198087 Z" id="Fill-1" fill="#000000"></path>
                <path d="M24,39 C25.6557146,39 27,40.3442297 27,42 C27,43.6557146 25.6557146,45 24,45 C22.3442297,45 21,43.6557146 21,42 C21,40.3442297 22.3442297,39 24,39 Z" id="Fill-2" fill="#000000"></path>
                <line x1="14" y1="62" x2="23" y2="43" id="Stroke-3" stroke="#000000" stroke-width="2.75" stroke-linecap="round" stroke-linejoin="round"></line>
                <line x1="34" y1="62" x2="25" y2="43" id="Stroke-4" stroke="#000000" stroke-width="2.75" stroke-linecap="round" stroke-linejoin="round"></line>
                <line x1="24.5" y1="45" x2="24.5" y2="65" id="Stroke-5" stroke="#000000" stroke-width="2.75" stroke-linecap="round" stroke-linejoin="round"></line>
                <path d="M41.5653849,33.7030723 L20.3465531,43.6423375 C19.3925969,44.0891688 18.2841096,43.8475723 17.6042057,43.1205542 L6.80499967,48.1790803 C6.65240429,48.2500102 6.48902382,48.2968076 6.32121869,48.3153961 C6.12310465,48.3373002 5.92100842,48.3201248 5.72947607,48.2658267 C5.51515672,48.2050064 5.31494097,48.0978777 5.14713584,47.953409 C5.02883156,47.8514982 4.92783876,47.7317054 4.84659099,47.5994116 L2.13139996,48.8630512 C2.11436503,48.8709323 2.09661109,48.8772372 2.07968678,48.8851726 C2.06646811,48.8913688 2.05385784,48.8989781 2.04069448,48.9053917 C2.0151974,48.9178384 1.98909192,48.9290894 1.96248866,48.9391446 C1.89252377,48.9656142 1.81929569,48.9834418 1.74490614,48.992573 C1.44657361,49.0292609 1.14741146,48.9263718 0.901842973,48.7645646 C0.861302049,48.7378232 0.821977906,48.7093969 0.783870544,48.6794487 C0.734756847,48.6408585 0.687689554,48.5997137 0.642779281,48.5565035 C0.365132028,48.2891439 0.166188369,47.9411797 0.0673525836,47.5723441 C0.015141626,47.3774907 -0.0089727569,47.1745387 0.00302912634,46.973163 C0.02122553,46.6684633 0.125647445,46.3552302 0.352134597,46.1379292 C0.407664047,46.0847182 0.469775176,46.0381925 0.53697466,46.0002002 C0.561642125,45.9862316 0.587028597,45.9734044 0.612912843,45.961773 C0.626297432,45.9557942 0.640235103,45.9509025 0.653453767,45.9447063 C0.670378081,45.9367709 0.686583389,45.9272049 0.703507704,45.919215 L3.41482715,44.6491619 C3.1445912,43.9323621 3.47157338,43.1173474 4.18726172,42.7820473 L14.9864125,37.7235757 C14.839901,36.7466995 15.3469667,35.7483541 16.3009782,35.3014685 L37.5197547,25.3622032 C37.5432054,25.351224 37.5667114,25.3406796 37.5904386,25.3304614 C37.5033835,24.8500403 37.7480117,24.3521177 38.2177444,24.1320991 L40.2604428,23.175279 C40.287046,23.1628323 40.3138705,23.1514726 40.3409163,23.1412 C40.36492,23.1275575 40.3895875,23.1147847 40.414808,23.1029359 C41.6005056,22.5475628 43.6294323,24.2951564 44.9428918,27.0030486 C46.2562961,29.7109409 46.3600543,32.3603499 45.1743567,32.915723 C45.1491362,32.9275719 45.1234731,32.9383336 45.0975889,32.9480627 C45.072479,32.9622487 45.0465947,32.9755651 45.0199915,32.9880661 L42.9772931,33.9448319 C42.87984,33.9892378 42.7772432,34.0220123 42.6711068,34.0389703 C42.4605484,34.0726688 42.2411407,34.0450034 42.0450731,33.9628769 C41.9303085,33.914775 41.8242273,33.8480302 41.731752,33.765795 C41.7072505,33.744054 41.6837445,33.7212803 41.661234,33.697637 C41.6544311,33.6905169 41.6477388,33.6833424 41.6411571,33.6760591 C41.6390554,33.6737763 41.6381152,33.6688303 41.6349626,33.669102 C41.6285469,33.6695368 41.6234585,33.6749177 41.6177065,33.6777984 C41.6022755,33.6854621 41.5984039,33.6873101 41.5829176,33.6947564 L41.5653849,33.7030723 Z M41.1082072,24.2834706 C41.797071,23.9607802 43.1561045,25.3476368 44.1411992,27.3785695 C45.1262386,29.4095023 45.3667187,31.3203162 44.6778548,31.6430066 C43.9889357,31.965697 42.6299022,30.5788404 41.6448628,28.5479077 C40.6597681,26.5169749 40.419288,24.6061609 41.1082072,24.2834706 Z" id="Fill-6" fill="#000000"></path>
                <polygon id="Fill-7" fill="#000000" points="55.5 0 55.7564437 0.828921244 56.2502447 0.572799471 56.1709625 1.1460953 57 1.1460953 56.3295269 1.65833885 56.7137031 2.07279947 56.1709625 2.1705824 56.4274062 3 55.7564437 2.48726009 55.5 3 55.2440457 2.48726009 54.5730832 3 54.8290375 2.1705824 54.2862969 2.07279947 54.6709625 1.65833885 54 1.1460953 54.8290375 1.1460953 54.7502447 0.572799471 55.2440457 0.828921244"></polygon>
                <polygon id="Fill-8" fill="#000000" points="74.5 7 74.7564437 7.82892124 75.2502447 7.57279947 75.1709625 8.14559894 76 8.14559894 75.3295269 8.65833885 75.7137031 9.07279947 75.1709625 9.1705824 75.4274062 10 74.7564437 9.48726009 74.5 10 74.2440457 9.48726009 73.5730832 10 73.8290375 9.1705824 73.2862969 9.07279947 73.6709625 8.65833885 73 8.14559894 73.8290375 8.14559894 73.7502447 7.57279947 74.2440457 7.82892124"></polygon>
                <polygon id="Fill-9" fill="#000000" points="50.4999511 9 50.7561739 9.82898982 51.2499266 9.57284686 51.17075 10.1456937 52 10.1456937 51.3291032 10.658476 51.7134375 11.072971 51.17075 11.170762 51.4269729 12 50.7561739 11.4874659 50.4999511 12 50.2437282 11.4874659 49.5729292 12 49.8291521 11.170762 49.2864646 11.072971 49.6707989 10.658476 49 10.1456937 49.8291521 10.1456937 49.7499755 9.57284686 50.2437282 9.82898982"></polygon>
            </g>
        </g>
    </g>
</svg>