<svg viewBox="0 0 20 17" xmlns="http://www.w3.org/2000/svg" fill-rule="evenodd" clip-rule="evenodd" stroke-linejoin="round" stroke-miterlimit="2">
  <path fill="none" d="M0 0h19.706v16.373H0z"/>
  <clipPath id="a">
    <path d="M0 0h19.706v16.373H0z"/>
  </clipPath>
  <g clip-path="url(#a)">
    <path d="M18.432 7.201v6.907a.41.41 0 01-.411.41l-.823 1.07a.822.822 0 01-.82.78H.809a.822.822 0 01-.821-.822V3.469c0-.114.047-.218.123-.292l.868-.869a.822.822 0 01.581-.241h5.185V.404c0-.125.101-.226.226-.226h.151a8.57 8.57 0 012.057-.242c.736 0 1.433.087 2.056.242h.255c.124 0 .225.101.225.226v1.663h6.306v.001a.41.41 0 01.411.411V5.33h1.088l.011.001c.089.008.097.03.122.057a.183.183 0 01-.002.26l-.613.618.613.617s.039.045.049.09a.185.185 0 01-.18.228h-1.088zm-7.62-5.134v-.996A8.861 8.861 0 009.179.923c-.535 0-1.05.045-1.53.13v1.014h3.163z" fill="#fff"/>
    <path d="M18.432 7.201v6.907a.41.41 0 01-.411.41l-.823 1.07a.822.822 0 01-.82.78H.809a.822.822 0 01-.821-.822V3.469c0-.114.047-.218.123-.292l.868-.869a.822.822 0 01.581-.241h5.185V.404c0-.125.101-.226.226-.226h.151a8.57 8.57 0 012.057-.242c.736 0 1.433.087 2.056.242h.255c.124 0 .225.101.225.226v1.663h6.306l.616.001h-.616a.41.41 0 01.411.411V5.33h1.088l.011.001c.089.008.097.03.122.057a.183.183 0 01-.002.26l-.613.618.613.617s.039.045.049.09a.185.185 0 01-.18.228h-1.088zm-.411-4.377l-.822 1.165v10.776l.822-1.027V7.201h-.346c-.038-.001-.048-.005-.068-.013-.069-.027-.114-.08-.117-.173V5.517c.001-.039.005-.049.013-.069.027-.069.08-.115.172-.118h.346V2.824zm-1.232 1.027a.062.062 0 00-.062-.062H.46a.062.062 0 00-.062.062v.123c0 .034.028.062.062.062h16.267a.062.062 0 00.062-.062v-.123zM17.2 3.3H.398 17.2zM2.945 2.308c.04-.039.04-.071 0-.071h-.144a.248.248 0 00-.143.071l-.757.757c-.04.04-.04.072 0 .072h.144a.244.244 0 00.143-.072l.757-.757zm-.493 0c.04-.039.04-.071 0-.071h-.144a.248.248 0 00-.143.071l-.757.757c-.04.04-.04.072 0 .072h.144a.244.244 0 00.143-.072l.757-.757zm14.788 0c.04-.039.04-.071 0-.071h-.144a.248.248 0 00-.143.071l-.757.757c-.04.04-.04.072 0 .072h.144a.25.25 0 00.144-.072l.756-.757zm-.493 0c.04-.039.04-.071 0-.071h-.143a.248.248 0 00-.144.071l-.757.757c-.04.04-.04.072 0 .072h.144c.04 0 .104-.032.144-.072l.756-.757zm-10.059.599s.372.17.552.17c.18 0 .528-.171.528-.171a.06.06 0 00.028-.082.06.06 0 00-.082-.028s-.312.158-.474.158c-.163 0-.5-.159-.5-.159a.062.062 0 00-.052.112zm4.026 0s.372.17.551.17c.18 0 .529-.171.529-.171a.06.06 0 00.028-.082.062.062 0 00-.083-.028s-.312.158-.474.158c-.163 0-.499-.159-.499-.159a.062.062 0 00-.052.112zm.098-.84v-.996A8.861 8.861 0 009.179.923c-.535 0-1.05.045-1.53.13v1.014h3.163z"/>
    <g fill="#fff" fill-rule="nonzero">
      <path d="M15.039 11.902v.749l.082 1.306h-.032l-.105-.457-.589-1.598h-.479v2.74h.433v-.758l-.077-1.297h.027l.11.457.584 1.598h.479v-2.74h-.433zM12.546 14.139h.544l.073.503h.474l-.566-2.74h-.502l-.566 2.74h.475l.068-.503zm.484-.41h-.424l.155-.868.046-.329h.027l.046.329.15.868zM11.273 11.902h.456v2.74h-.456zM9.607 14.409h.374l.347-1.37.091-.447h.028l-.037.794v1.256h.425v-2.74h-.607l-.302 1.183-.109.57h-.046l-.109-.57-.302-1.183h-.607v2.74h.425v-1.256l-.037-.794h.028l.091.447.347 1.37zM7.242 11.902v2.74h1.142v-.411h-.685v-.799h.557v-.411h-.557v-.708h.685v-.411H7.242zM6.804 11.902h-.456v1.119h-.502v-1.119h-.457v2.74h.457v-1.21h.502v1.21h.456v-2.74zM4.956 12.359a.459.459 0 00-.457-.457h-.502a.458.458 0 00-.456.457v1.826c0 .251.205.457.456.457h.502a.459.459 0 00.457-.457v-1.826zm-.457.068v1.69a.12.12 0 01-.114.114h-.274a.12.12 0 01-.114-.114v-1.69a.12.12 0 01.114-.114h.274a.12.12 0 01.114.114zM2.742 12.971a.428.428 0 00.347-.434v-.635a.458.458 0 00-.457-.456h-.958v3.196h1.004a.458.458 0 00.456-.457v-.744a.445.445 0 00-.392-.448v-.022zm-.224-.179H2.13v-.936h.388c.06 0 .114.055.114.115v.707c0 .06-.054.114-.114.114zm-.388.411h.32a.24.24 0 01.228.229v.685a.12.12 0 01-.114.114H2.13v-1.028z"/>
    </g>
    <g fill="#fff" fill-rule="nonzero">
      <path d="M13.564 10.761v-.982l.566-1.758h-.447l-.256.936-.077.292h-.028l-.082-.292-.251-.936h-.447l.566 1.753v.987h.456zM11.588 9.665l.379 1.096h.479l-.425-1.206a.43.43 0 00.297-.42v-.657a.458.458 0 00-.456-.457h-.959v2.74h.457V9.665h.228zm.16-.411h-.388v-.822h.388a.12.12 0 01.114.114v.594a.12.12 0 01-.114.114zM9.538 10.258h.544l.073.503h.474l-.566-2.74h-.502l-.566 2.74h.475l.068-.503zm.484-.411h-.424l.155-.867.046-.329h.027l.046.329.15.867zM7.881 9.665l.379 1.096h.48l-.425-1.206a.43.43 0 00.297-.42v-.657a.459.459 0 00-.457-.457h-.958v2.74h.456V9.665h.228zm.16-.411h-.388v-.822h.388c.06 0 .114.055.114.114v.594a.119.119 0 01-.114.114zM5.686 8.021v2.74h1.141v-.411h-.685v-.799h.557V9.14h-.557v-.708h.685v-.411H5.686zM3.961 8.021v.411h.456v2.329h.456V8.432h.457v-.411H3.961zM3.148 8.021h.456v2.74h-.456zM2.13 10.35V7.564h-.456v3.197h1.141v-.411H2.13z"/>
    </g>
    <g fill-rule="nonzero">
      <path d="M3.767 6.141h.266c0-.086.003-.169-.001-.25-.003-.05-.04-.073-.087-.067-.061.009-.14-.036-.175.054-.002.005-.002.011-.002.016l-.001.247m.53.22h-.529c0 .092-.001.176.001.26 0 .014.01.038.018.039.065.01.131.023.195.015.021-.002.036-.062.051-.097.006-.013.004-.03.005-.049h.249c.063.23-.065.4-.299.401-.073 0-.145.002-.217 0a.27.27 0 01-.273-.271 27.137 27.137 0 010-.807c.001-.16.117-.27.277-.272.088-.002.176-.003.264 0 .131.004.249.101.255.227.009.18.003.361.003.554M2.5 5.043h.261v.617c.086-.1.187-.083.283-.079a.266.266 0 01.246.22.404.404 0 01.007.069v1.002c0 .015-.002.03-.004.052h-.262l-.003-.081v-.878c0-.135-.008-.142-.14-.142-.118 0-.127.01-.127.138v.965H2.5V5.043zM1.811 5.828l-.137-.01v-.235l.136-.008v-.259h.271v.259h.207v.246h-.206v.737c0 .115.012.126.123.127h.083v.236c-.087 0-.178.012-.264-.003-.13-.021-.212-.133-.212-.268-.002-.243-.001-.486-.001-.73v-.092z" fill="#fff"/>
      <path d="M3.767 6.141l.001-.247c0-.005 0-.011.002-.016.035-.09.114-.045.175-.054.047-.006.084.017.087.067.004.081.001.164.001.25h-.266z"/>
    </g>
  </g>
</svg>
